<svg width="37" height="37" viewBox="0 0 37 37" fill="none" xmlns="http://www.w3.org/2000/svg">
<path d="M3.07996 13.5662C3.07996 9.80266 3.07996 7.92088 3.81239 6.48339C4.45666 5.21894 5.48469 4.19091 6.74914 3.54665C8.18663 2.81421 10.0684 2.81421 13.832 2.81421H23.688C27.4515 2.81421 29.3333 2.81421 30.7708 3.54665C32.0352 4.19091 33.0633 5.21894 33.7075 6.48339C34.44 7.92088 34.44 9.80266 34.44 13.5662V23.4222C34.44 27.1858 34.44 29.0675 33.7075 30.505C33.0633 31.7695 32.0352 32.7975 30.7708 33.4418C29.3333 34.1742 27.4515 34.1742 23.688 34.1742H13.832C10.0684 34.1742 8.18663 34.1742 6.74914 33.4418C5.48469 32.7975 4.45666 31.7695 3.81239 30.505C3.07996 29.0675 3.07996 27.1858 3.07996 23.4222V13.5662Z" fill="#0C2B2F" fill-opacity="0.7"/>
<path d="M28.0282 11.804C26.3328 10.3704 24.2983 9.65365 22.1508 9.53418L21.8117 9.89258C23.7332 10.3704 25.4286 11.3262 27.011 12.6403C25.0895 11.5651 22.942 10.8483 20.6814 10.6094C20.0032 10.4899 19.4381 10.4899 18.7599 10.4899C18.0818 10.4899 17.5166 10.4899 16.8385 10.6094C14.5779 10.8483 12.4304 11.5651 10.5089 12.6403C12.0913 11.3262 13.7867 10.3704 15.7082 9.89258L15.3691 9.53418C13.2216 9.65365 11.1871 10.3704 9.49168 11.804C7.57022 15.627 6.55297 19.9278 6.43994 24.348C8.13535 26.2595 10.5089 27.4542 12.9955 27.4542C12.9955 27.4542 13.7867 26.4984 14.3519 25.6622C12.8825 25.3038 11.5262 24.4675 10.622 23.1534C11.4132 23.6312 12.2043 24.1091 12.9955 24.4675C14.0128 24.9454 15.03 25.1843 16.0473 25.4232C16.9515 25.5427 17.8557 25.6622 18.7599 25.6622C19.6642 25.6622 20.5684 25.5427 21.4726 25.4232C22.4899 25.1843 23.5071 24.9454 24.5243 24.4675C25.3155 24.1091 26.1067 23.6312 26.8979 23.1534C25.9937 24.4675 24.6374 25.3038 23.168 25.6622C23.7332 26.4984 24.5243 27.4542 24.5243 27.4542C27.011 27.4542 29.3845 26.2595 31.0799 24.348C30.9669 19.9278 29.9497 15.627 28.0282 11.804ZM15.03 22.1976C13.8998 22.1976 12.8825 21.1224 12.8825 19.8083C12.8825 18.4942 13.8998 17.419 15.03 17.419C16.1603 17.419 17.1776 18.4942 17.1776 19.8083C17.1776 21.1224 16.1603 22.1976 15.03 22.1976ZM22.4898 22.1976C21.3596 22.1976 20.3423 21.1224 20.3423 19.8083C20.3423 18.4942 21.3596 17.419 22.4898 17.419C23.6201 17.419 24.6374 18.4942 24.6374 19.8083C24.6374 21.1224 23.6201 22.1976 22.4898 22.1976Z" fill="white"/>
</svg>
