<svg width="36" height="37" viewBox="0 0 36 37" fill="none" xmlns="http://www.w3.org/2000/svg">
<path d="M2.32025 13.5665C2.32025 9.8029 2.32025 7.92112 3.05269 6.48364C3.69696 5.21919 4.72499 4.19116 5.98944 3.54689C7.42692 2.81445 9.3087 2.81445 13.0723 2.81445H22.9283C26.6918 2.81445 28.5736 2.81445 30.0111 3.54689C31.2755 4.19116 32.3035 5.21919 32.9478 6.48364C33.6803 7.92112 33.6803 9.8029 33.6803 13.5665V23.4225C33.6803 27.186 33.6803 29.0678 32.9478 30.5053C32.3035 31.7697 31.2755 32.7977 30.0111 33.442C28.5736 34.1745 26.6918 34.1745 22.9283 34.1745H13.0723C9.3087 34.1745 7.42692 34.1745 5.98944 33.442C4.72499 32.7977 3.69696 31.7697 3.05269 30.5053C2.32025 29.0678 2.32025 27.186 2.32025 23.4225V13.5665Z" fill="#0C2B2F" fill-opacity="0.7"/>
<path d="M25.0759 7.29492H28.8363L20.6229 16.7452L30.3206 29.56H22.701L16.7637 21.7919L9.9357 29.56H6.17538L14.9824 19.4665L5.6806 7.29492H13.4981L18.8912 14.4197L25.0759 7.29492ZM23.74 27.284H25.8181L12.3601 9.42247H10.0841L23.74 27.284Z" fill="white"/>
</svg>
