<svg width="37" height="37" viewBox="0 0 37 37" fill="none" xmlns="http://www.w3.org/2000/svg">
<rect x="2.44" y="2.81421" width="31.36" height="31.36" rx="6.72" fill="#0C2B2F" fill-opacity="0.7"/>
<path d="M25.96 12.3342C25.96 13.262 25.2078 14.0142 24.28 14.0142C23.3521 14.0142 22.6 13.262 22.6 12.3342C22.6 11.4064 23.3521 10.6542 24.28 10.6542C25.2078 10.6542 25.96 11.4064 25.96 12.3342Z" fill="white"/>
<path fill-rule="evenodd" clip-rule="evenodd" d="M18.12 24.0942C21.2128 24.0942 23.72 21.587 23.72 18.4942C23.72 15.4014 21.2128 12.8942 18.12 12.8942C15.0272 12.8942 12.52 15.4014 12.52 18.4942C12.52 21.587 15.0272 24.0942 18.12 24.0942ZM18.12 21.8542C19.9757 21.8542 21.48 20.3499 21.48 18.4942C21.48 16.6385 19.9757 15.1342 18.12 15.1342C16.2643 15.1342 14.76 16.6385 14.76 18.4942C14.76 20.3499 16.2643 21.8542 18.12 21.8542Z" fill="white"/>
<path fill-rule="evenodd" clip-rule="evenodd" d="M6.91998 18.0462C6.91998 14.2826 6.91998 12.4009 7.65242 10.9634C8.29669 9.69892 9.32472 8.67089 10.5892 8.02663C12.0267 7.29419 13.9084 7.29419 17.672 7.29419H18.568C22.3315 7.29419 24.2133 7.29419 25.6508 8.02663C26.9152 8.67089 27.9433 9.69892 28.5875 10.9634C29.32 12.4009 29.32 14.2826 29.32 18.0462V18.9422C29.32 22.7057 29.32 24.5875 28.5875 26.025C27.9433 27.2895 26.9152 28.3175 25.6508 28.9618C24.2133 29.6942 22.3315 29.6942 18.568 29.6942H17.672C13.9084 29.6942 12.0267 29.6942 10.5892 28.9618C9.32472 28.3175 8.29669 27.2895 7.65242 26.025C6.91998 24.5875 6.91998 22.7057 6.91998 18.9422V18.0462ZM17.672 9.53419H18.568C20.4867 9.53419 21.7911 9.53593 22.7993 9.6183C23.7813 9.69854 24.2835 9.84398 24.6339 10.0225C25.4768 10.452 26.1622 11.1373 26.5917 11.9803C26.7702 12.3306 26.9156 12.8329 26.9959 13.8149C27.0782 14.8231 27.08 16.1275 27.08 18.0462V18.9422C27.08 20.8609 27.0782 22.1653 26.9959 23.1735C26.9156 24.1555 26.7702 24.6577 26.5917 25.0081C26.1622 25.851 25.4768 26.5364 24.6339 26.9659C24.2835 27.1444 23.7813 27.2898 22.7993 27.3701C21.7911 27.4524 20.4867 27.4542 18.568 27.4542H17.672C15.7532 27.4542 14.4489 27.4524 13.4407 27.3701C12.4587 27.2898 11.9564 27.1444 11.6061 26.9659C10.7631 26.5364 10.0778 25.851 9.64827 25.0081C9.46977 24.6577 9.32433 24.1555 9.2441 23.1735C9.16173 22.1653 9.15998 20.8609 9.15998 18.9422V18.0462C9.15998 16.1275 9.16173 14.8231 9.2441 13.8149C9.32433 12.8329 9.46977 12.3306 9.64827 11.9803C10.0778 11.1373 10.7631 10.452 11.6061 10.0225C11.9564 9.84398 12.4587 9.69854 13.4407 9.6183C14.4489 9.53593 15.7532 9.53419 17.672 9.53419Z" fill="white"/>
</svg>
